<svg width="4" height="6" viewBox="0 0 4 6" fill="none" xmlns="http://www.w3.org/2000/svg">
<path d="M8.74181e-06 2.87898C-0.0003713 2.93357 0.0122346 2.98768 0.037104 3.03822C0.0619737 3.08876 0.0986172 3.13472 0.144934 3.17348L3.14339 5.66219C3.2375 5.7403 3.36513 5.78418 3.49821 5.78418C3.63129 5.78418 3.75893 5.7403 3.85303 5.66219C3.94713 5.58409 4 5.47815 4 5.3677C4 5.25724 3.94713 5.1513 3.85303 5.0732L1.20439 2.87898L3.84803 0.684765C3.9299 0.605416 3.97268 0.503348 3.96783 0.398956C3.96297 0.294565 3.91083 0.195539 3.82183 0.121668C3.73283 0.0477967 3.61352 0.00452183 3.48774 0.000489217C3.36197 -0.00354292 3.239 0.0319648 3.14339 0.0999179L0.144934 2.58863C0.0526096 2.66589 0.000560925 2.77017 8.74181e-06 2.87898Z" fill="#44006E"/>
</svg>
