<svg width="24" height="24" viewBox="0 0 24 24" fill="none" xmlns="http://www.w3.org/2000/svg">
<path fill-rule="evenodd" clip-rule="evenodd" d="M2 12C2 6.477 6.477 2 12 2C17.523 2 22 6.477 22 12C22 17.523 17.523 22 12 22C6.477 22 2 17.523 2 12ZM12 4C9.87827 4 7.84344 4.84285 6.34315 6.34315C4.84286 7.84344 4 9.87827 4 12C4 14.1217 4.84286 16.1566 6.34315 17.6569C7.84344 19.1571 9.87827 20 12 20C14.1217 20 16.1566 19.1571 17.6569 17.6569C19.1571 16.1566 20 14.1217 20 12C20 9.87827 19.1571 7.84344 17.6569 6.34315C16.1566 4.84285 14.1217 4 12 4Z" fill="white"/>
<path fill-rule="evenodd" clip-rule="evenodd" d="M12.5 7C12.5 6.73478 12.3946 6.48043 12.2071 6.29289C12.0196 6.10536 11.7652 6 11.5 6C11.2348 6 10.9804 6.10536 10.7929 6.29289C10.6054 6.48043 10.5 6.73478 10.5 7V11H6.5C6.23478 11 5.98043 11.1054 5.79289 11.2929C5.60536 11.4804 5.5 11.7348 5.5 12C5.5 12.2652 5.60536 12.5196 5.79289 12.7071C5.98043 12.8946 6.23478 13 6.5 13H10.5V17C10.5 17.2652 10.6054 17.5196 10.7929 17.7071C10.9804 17.8946 11.2348 18 11.5 18C11.7652 18 12.0196 17.8946 12.2071 17.7071C12.3946 17.5196 12.5 17.2652 12.5 17V13H16.5C16.7652 13 17.0196 12.8946 17.2071 12.7071C17.3946 12.5196 17.5 12.2652 17.5 12C17.5 11.7348 17.3946 11.4804 17.2071 11.2929C17.0196 11.1054 16.7652 11 16.5 11H12.5V7Z" fill="white"/>
</svg>
