<svg width="24" height="24" viewBox="0 0 24 24" fill="none" xmlns="http://www.w3.org/2000/svg">
<path d="M14.075 20.25C13.8917 20.4667 13.6627 20.5877 13.388 20.613C13.1133 20.6383 12.8673 20.559 12.65 20.375L8.825 17.175C7.99167 16.475 7.39167 15.625 7.025 14.625C6.65833 13.625 6.56667 12.6 6.75 11.55L5.35 10.375C5.15 10.1917 5.03767 9.97067 5.013 9.712C4.98833 9.45333 5.059 9.216 5.225 9H4V11C4 11.55 3.80433 12.021 3.413 12.413C3.02167 12.805 2.55067 13.0007 2 13V3C2.55 3 3.021 3.196 3.413 3.588C3.805 3.98 4.00067 4.45067 4 5V7H6.875L8.425 5.125C8.60833 4.90833 8.83767 4.78733 9.113 4.762C9.38833 4.73667 9.634 4.816 9.85 5L11.225 6.15C12.2417 5.76667 13.275 5.66667 14.325 5.85C15.375 6.03333 16.3167 6.475 17.15 7.175L20.975 10.375C21.1917 10.5583 21.3127 10.7877 21.338 11.063C21.3633 11.3383 21.284 11.5757 21.1 11.775L14.075 20.25ZM13.175 18.175L18.95 11.25L15.85 8.7C15.15 8.13333 14.3543 7.85833 13.463 7.875C12.5717 7.89167 11.7007 8.075 10.85 8.425L9.325 7.175L7.4 9.475L8.9 10.725C8.7 11.625 8.675 12.521 8.825 13.413C8.975 14.305 9.4 15.0423 10.1 15.625L13.175 18.175Z" fill="#44006E"/>
</svg>
