<svg width="24" height="24" viewBox="0 0 24 24" fill="none" xmlns="http://www.w3.org/2000/svg">
<path opacity="0.5" fill-rule="evenodd" clip-rule="evenodd" d="M12.8701 7C13.1353 7 13.3897 7.10536 13.5772 7.29289C13.7648 7.48043 13.8701 7.73478 13.8701 8V11.586L15.5771 13.293C15.7593 13.4816 15.8601 13.7342 15.8578 13.9964C15.8555 14.2586 15.7503 14.5094 15.5649 14.6948C15.3795 14.8802 15.1287 14.9854 14.8665 14.9877C14.6043 14.99 14.3517 14.8892 14.1631 14.707L12.1631 12.707C11.9756 12.5195 11.8702 12.2652 11.8701 12V8C11.8701 7.73478 11.9755 7.48043 12.163 7.29289C12.3505 7.10536 12.6049 7 12.8701 7Z" fill="white"/>
<path d="M6.62673 8.83106C7.29955 7.50512 8.37709 6.42785 9.70321 5.75539C11.0293 5.08292 12.5351 4.85019 14.0024 5.09091C15.4696 5.33164 16.8221 6.03332 17.8639 7.09427C18.9056 8.15521 19.5824 9.52031 19.7963 10.9917C20.0102 12.4631 19.7499 13.9644 19.0533 15.278C18.3567 16.5916 17.26 17.6493 15.9219 18.2978C14.5839 18.9462 13.0742 19.1518 11.6115 18.8847C10.1488 18.6175 8.80917 17.8916 7.78673 16.8121C7.60426 16.6195 7.35278 16.5073 7.0876 16.5002C6.82243 16.4931 6.56528 16.5916 6.37273 16.7741C6.18019 16.9565 6.06801 17.208 6.06088 17.4732C6.05376 17.7384 6.15226 17.9955 6.33473 18.1881C7.66782 19.5954 9.41966 20.5347 11.3296 20.8662C13.2395 21.1977 15.2054 20.9037 16.9348 20.0279C18.6641 19.1522 20.0645 17.7414 20.9276 16.0057C21.7906 14.2699 22.0701 12.3019 21.7246 10.3944C21.379 8.48702 20.4268 6.74214 19.0097 5.41944C17.5926 4.09675 15.7864 3.26695 13.8597 3.05351C11.933 2.84007 9.98886 3.25441 8.31662 4.23487C6.64438 5.21533 5.33339 6.70951 4.57873 8.49506L3.98573 7.46906C3.85218 7.24125 3.63395 7.07552 3.37865 7.00802C3.12336 6.94052 2.85173 6.97675 2.62304 7.10878C2.39435 7.24082 2.22717 7.45795 2.15798 7.71279C2.0888 7.96764 2.12322 8.2395 2.25373 8.46906L4.00373 11.5001C4.13635 11.7297 4.35476 11.8973 4.61093 11.966C4.86711 12.0346 5.14005 11.9987 5.36973 11.8661L8.40073 10.1161C8.62854 9.98251 8.79427 9.76427 8.86177 9.50898C8.92927 9.25368 8.89304 8.98205 8.76101 8.75336C8.62897 8.52468 8.41184 8.3575 8.157 8.28831C7.90215 8.21912 7.63029 8.25354 7.40073 8.38406L6.62673 8.83106Z" fill="white"/>
</svg>
