<svg width="18" height="18" viewBox="0 0 18 18" fill="none" xmlns="http://www.w3.org/2000/svg">
<path d="M16.7495 12.7291V15.1377C16.7504 15.3613 16.7045 15.5827 16.6148 15.7875C16.525 15.9924 16.3934 16.1763 16.2283 16.3275C16.0632 16.4786 15.8683 16.5937 15.656 16.6654C15.4438 16.737 15.2189 16.7636 14.9957 16.7435C12.5202 16.475 10.1423 15.6308 8.05312 14.2786C6.10937 13.0459 4.46141 11.4012 3.22627 9.46135C1.86669 7.36679 1.02059 4.98206 0.75653 2.50036C0.736426 2.27834 0.762865 2.05457 0.834162 1.8433C0.905459 1.63203 1.02005 1.4379 1.17065 1.27325C1.32124 1.10861 1.50454 0.97706 1.70886 0.886987C1.91319 0.796914 2.13407 0.750288 2.35744 0.750078H4.77086C5.16128 0.746243 5.53977 0.884222 5.8358 1.1383C6.13182 1.39237 6.32517 1.74521 6.37981 2.13103C6.48168 2.90185 6.67059 3.6587 6.94295 4.38713C7.05118 4.6745 7.07461 4.98682 7.01045 5.28707C6.94629 5.58732 6.79723 5.86292 6.58093 6.08121L5.55925 7.10087C6.70446 9.11092 8.37206 10.7752 10.3861 11.9182L11.4078 10.8985C11.6265 10.6826 11.9027 10.5339 12.2035 10.4698C12.5044 10.4058 12.8173 10.4292 13.1052 10.5372C13.8351 10.809 14.5935 10.9976 15.3658 11.0992C15.7566 11.1542 16.1135 11.3507 16.3686 11.6512C16.6237 11.9517 16.7593 12.3353 16.7495 12.7291Z" stroke="white" stroke-width="1.5" stroke-linecap="round" stroke-linejoin="round"/>
</svg>
