<svg width="22" height="22" viewBox="0 0 22 22" fill="none" xmlns="http://www.w3.org/2000/svg">
<path d="M16.8232 6.19775C16.5884 6.19775 16.3632 6.29104 16.1972 6.45709C16.0311 6.62313 15.9378 6.84834 15.9378 7.08317V16.9919C15.9124 17.4396 15.7111 17.8592 15.3778 18.1592C15.0445 18.4592 14.6061 18.6153 14.1581 18.5936H7.09251C6.64458 18.6153 6.2062 18.4592 5.87286 18.1592C5.53952 17.8592 5.33823 17.4396 5.31283 16.9919V7.08317C5.31283 6.84834 5.21954 6.62313 5.05349 6.45709C4.88745 6.29104 4.66224 6.19775 4.42741 6.19775C4.19258 6.19775 3.96737 6.29104 3.80132 6.45709C3.63528 6.62313 3.54199 6.84834 3.54199 7.08317V16.9919C3.56727 17.9094 3.95511 18.7794 4.62059 19.4116C5.28607 20.0437 6.17493 20.3863 7.09251 20.3644H14.1581C15.0757 20.3863 15.9646 20.0437 16.6301 19.4116C17.2955 18.7794 17.6834 17.9094 17.7087 16.9919V7.08317C17.7087 6.84834 17.6154 6.62313 17.4493 6.45709C17.2833 6.29104 17.0581 6.19775 16.8232 6.19775Z" fill="#E62929"/>
<path d="M17.7083 3.5415H14.1667V1.77067C14.1667 1.53584 14.0734 1.31063 13.9073 1.14459C13.7413 0.978539 13.5161 0.885254 13.2812 0.885254H7.96875C7.73392 0.885254 7.50871 0.978539 7.34267 1.14459C7.17662 1.31063 7.08333 1.53584 7.08333 1.77067V3.5415H3.54167C3.30684 3.5415 3.08163 3.63479 2.91558 3.80084C2.74953 3.96688 2.65625 4.19209 2.65625 4.42692C2.65625 4.66175 2.74953 4.88696 2.91558 5.05301C3.08163 5.21905 3.30684 5.31234 3.54167 5.31234H17.7083C17.9432 5.31234 18.1684 5.21905 18.3344 5.05301C18.5005 4.88696 18.5938 4.66175 18.5938 4.42692C18.5938 4.19209 18.5005 3.96688 18.3344 3.80084C18.1684 3.63479 17.9432 3.5415 17.7083 3.5415ZM8.85417 3.5415V2.65609H12.3958V3.5415H8.85417Z" fill="#E62929"/>
<path d="M9.73958 15.347V9.14909C9.73958 8.91426 9.6463 8.68905 9.48025 8.523C9.3142 8.35696 9.08899 8.26367 8.85417 8.26367C8.61934 8.26367 8.39413 8.35696 8.22808 8.523C8.06203 8.68905 7.96875 8.91426 7.96875 9.14909V15.347C7.96875 15.5818 8.06203 15.807 8.22808 15.9731C8.39413 16.1391 8.61934 16.2324 8.85417 16.2324C9.08899 16.2324 9.3142 16.1391 9.48025 15.9731C9.6463 15.807 9.73958 15.5818 9.73958 15.347Z" fill="#E62929"/>
<path d="M13.2816 15.0521V8.85417C13.2816 8.61934 13.1883 8.39413 13.0222 8.22808C12.8562 8.06203 12.631 7.96875 12.3962 7.96875C12.1613 7.96875 11.9361 8.06203 11.7701 8.22808C11.604 8.39413 11.5107 8.61934 11.5107 8.85417V15.0521C11.5107 15.2869 11.604 15.5121 11.7701 15.6782C11.9361 15.8442 12.1613 15.9375 12.3962 15.9375C12.631 15.9375 12.8562 15.8442 13.0222 15.6782C13.1883 15.5121 13.2816 15.2869 13.2816 15.0521Z" fill="#E62929"/>
</svg>
