<svg width="100" height="100" viewBox="0 0 100 100" fill="none" xmlns="http://www.w3.org/2000/svg">
<path d="M67.5455 46.2749L40.5705 32.7832C39.8079 32.4016 38.9604 32.2214 38.1086 32.2597C37.2567 32.298 36.4288 32.5535 35.7035 33.0019C34.9782 33.4504 34.3797 34.0768 33.9648 34.8218C33.5499 35.5668 33.3324 36.4055 33.333 37.2582V62.7416C33.3324 63.5943 33.5499 64.433 33.9648 65.178C34.3797 65.9229 34.9782 66.5494 35.7035 66.9979C36.4288 67.4463 37.2567 67.7018 38.1086 67.7401C38.9604 67.7784 39.8079 67.5981 40.5705 67.2166L67.5455 53.7249C68.2367 53.3785 68.8178 52.8466 69.224 52.1887C69.6301 51.5309 69.8452 50.773 69.8452 49.9999C69.8452 49.2268 69.6301 48.4689 69.224 47.811C68.8178 47.1532 68.2367 46.6213 67.5455 46.2749Z" stroke="white" stroke-width="2" stroke-linecap="round" stroke-linejoin="round"/>
<path d="M50 87.5C70.7107 87.5 87.5 70.7107 87.5 50C87.5 29.2893 70.7107 12.5 50 12.5C29.2893 12.5 12.5 29.2893 12.5 50C12.5 70.7107 29.2893 87.5 50 87.5Z" stroke="white" stroke-width="2"/>
</svg>
