<svg width="24" height="24" viewBox="0 0 24 24" fill="none" xmlns="http://www.w3.org/2000/svg">
<path d="M17.9834 18.4055V18.6075C17.9841 18.9538 17.9166 19.2968 17.7847 19.6171C17.6529 19.9373 17.4593 20.2284 17.2149 20.4738C16.9705 20.7191 16.6803 20.914 16.3606 21.0472C16.0409 21.1804 15.6982 21.2493 15.3519 21.25H5.73137C5.38508 21.2507 5.04203 21.1832 4.72182 21.0514C4.40161 20.9195 4.1105 20.7259 3.86512 20.4815C3.61974 20.2372 3.4249 19.9469 3.29171 19.6272C3.15852 19.3076 3.0896 18.9648 3.08887 18.6185V8.5575C3.08809 8.21121 3.15551 7.86815 3.28731 7.54791C3.4191 7.22767 3.61268 6.93653 3.85699 6.6911C4.1013 6.44568 4.39156 6.25078 4.71119 6.11753C5.03083 5.98428 5.37358 5.91529 5.71987 5.91451H5.96337M11.8359 18.405H18.7499C19.0332 18.4056 19.3139 18.3504 19.5759 18.2425C19.8378 18.1346 20.076 17.9762 20.2768 17.7763C20.4775 17.5763 20.637 17.3388 20.7459 17.0773C20.8549 16.8158 20.9113 16.5353 20.9119 16.252V4.912C20.9125 4.62868 20.8572 4.34801 20.7494 4.08602C20.6415 3.82404 20.4831 3.58586 20.2831 3.3851C20.0832 3.18434 19.8457 3.02493 19.5842 2.91596C19.3226 2.80699 19.0422 2.7506 18.7589 2.75H8.12487C7.84155 2.74941 7.56088 2.80463 7.29889 2.91251C7.0369 3.02039 6.79873 3.17881 6.59797 3.37874C6.39721 3.57866 6.2378 3.81617 6.12882 4.07771C6.01985 4.33924 5.96346 4.61968 5.96287 4.903V12.098L11.8359 18.405Z" stroke="#44006E" stroke-width="1.5" stroke-linecap="round" stroke-linejoin="round"/>
</svg>
