<svg width="15" height="16" viewBox="0 0 15 16" fill="none" xmlns="http://www.w3.org/2000/svg">
<g clip-path="url(#clip0_4048_845)">
<path d="M11.875 8.03064C11.5293 8.03064 11.25 8.32935 11.25 8.69727V14.0306C11.25 14.3979 10.97 14.6973 10.625 14.6973H1.875C1.52996 14.6973 1.25004 14.3979 1.25004 14.0306V4.69727C1.25004 4.32996 1.52996 4.03064 1.875 4.03064H6.87504C7.22065 4.03064 7.5 3.73193 7.5 3.36401C7.5 2.99597 7.22065 2.69727 6.87504 2.69727H1.875C0.841255 2.69727 0 3.5946 0 4.69727V14.0306C0 15.1333 0.841255 16.0306 1.875 16.0306H10.625C11.6588 16.0306 12.5 15.1333 12.5 14.0306V8.69727C12.5 8.32861 12.2206 8.03064 11.875 8.03064Z" fill="white"/>
<path d="M5.85971 7.42358C5.816 7.47021 5.78659 7.52954 5.77411 7.59351L5.33226 9.95093C5.31166 10.0602 5.34416 10.1729 5.41786 10.2522C5.47725 10.3156 5.55725 10.3495 5.63919 10.3495C5.6591 10.3495 5.67981 10.3475 5.70041 10.3429L7.90981 9.87158C7.97103 9.85815 8.02665 9.8269 8.0698 9.78015L13.0148 4.50549L10.8054 2.14893L5.85971 7.42358Z" fill="white"/>
<path d="M14.5421 0.518768C13.9328 -0.131256 12.9415 -0.131256 12.3327 0.518768L11.4678 1.44138L13.6772 3.79807L14.5421 2.87534C14.8371 2.56137 14.9996 2.14267 14.9996 1.69736C14.9996 1.25204 14.8371 0.833344 14.5421 0.518768Z" fill="white"/>
</g>
<defs>
<clipPath id="clip0_4048_845">
<rect width="15" height="16" fill="white"/>
</clipPath>
</defs>
</svg>
