<svg width="62" height="62" viewBox="0 0 62 62" fill="none" xmlns="http://www.w3.org/2000/svg">
<path d="M51.6667 15.5V51.6667C51.6667 53.037 51.1223 54.3511 50.1534 55.3201C49.1844 56.289 47.8703 56.8333 46.5 56.8333H15.5C14.1297 56.8333 12.8156 56.289 11.8466 55.3201C10.8777 54.3511 10.3333 53.037 10.3333 51.6667V15.5" stroke="#FF3636" stroke-width="4" stroke-linecap="round" stroke-linejoin="round"/>
<path d="M23.25 28.4167V43.9167" stroke="#FF3636" stroke-width="4" stroke-linecap="round" stroke-linejoin="round"/>
<path d="M38.75 28.4167V43.9167" stroke="#FF3636" stroke-width="4" stroke-linecap="round" stroke-linejoin="round"/>
<path d="M5.16669 15.5H56.8334" stroke="#FF3636" stroke-width="4" stroke-linecap="round" stroke-linejoin="round"/>
<path d="M20.6667 15.5V10.3333C20.6667 8.96305 21.211 7.64889 22.18 6.67989C23.1489 5.7109 24.4631 5.16667 25.8333 5.16667H36.1667C37.5369 5.16667 38.8511 5.7109 39.82 6.67989C40.789 7.64889 41.3333 8.96305 41.3333 10.3333V15.5" stroke="#FF3636" stroke-width="4" stroke-linecap="round" stroke-linejoin="round"/>
</svg>
