<svg width="160" height="115" viewBox="0 0 160 115" fill="none" xmlns="http://www.w3.org/2000/svg">
<mask id="mask0_4110_292" style="mask-type:luminance" maskUnits="userSpaceOnUse" x="14" y="72" width="135" height="43">
<path d="M148.638 72.8708H14.418V115H148.638V72.8708Z" fill="white"/>
</mask>
<g mask="url(#mask0_4110_292)">
<path d="M22.0962 103.645V87.7653H15.6904V83.4702H33.0844V87.7653H26.682V103.645H22.0962Z" fill="white"/>
<path d="M51.8284 103.645V95.5177H43.9256V103.645H39.3398V83.4701H43.9256V91.2227H51.8284V83.4701H56.4175V103.645H51.8284Z" fill="white"/>
<path d="M62.0635 103.645L70.0804 83.47H74.5814L82.6016 103.645H77.6962L76.3394 100.158H68.3224L66.9656 103.645H62.0635ZM69.5031 96.5539H75.1881L72.3309 89.1761L69.5031 96.5539Z" fill="white"/>
<path d="M97.8224 104.049C95.7261 104.049 93.8645 103.603 92.2386 102.71C90.6144 101.815 89.3456 100.58 88.4324 99.0048C87.5191 97.43 87.0625 95.6149 87.0625 93.5594C87.0625 91.5023 87.5191 89.6864 88.4324 88.1108C89.3456 86.536 90.6144 85.3017 92.2386 84.4088C93.8645 83.5143 95.7261 83.0662 97.8224 83.0662C99.9376 83.0662 101.803 83.5143 103.419 84.4088C105.035 85.3017 106.303 86.536 107.226 88.1108C108.149 89.6864 108.612 91.5023 108.612 93.5594C108.612 95.7689 108.068 97.7143 106.981 99.3958C105.893 101.076 104.437 102.309 102.61 103.098L102.842 103.645C103.052 104.106 103.269 104.455 103.491 104.695C103.713 104.936 104.01 105.104 104.385 105.2C104.761 105.297 105.256 105.346 105.872 105.346H107.457V108.892H104.89C101.968 108.892 99.9767 107.642 98.9183 105.144L98.4585 104.02L97.8224 104.049ZM91.7363 93.5594C91.7363 94.77 91.9956 95.8365 92.5159 96.7595C93.0353 97.6809 93.752 98.4011 94.6652 98.9201C95.5785 99.4374 96.6303 99.6957 97.8224 99.6957C99.0333 99.6957 100.096 99.4374 101.009 98.9201C101.922 98.4011 102.633 97.6809 103.142 96.7595C103.653 95.8365 103.909 94.77 103.909 93.5594C103.909 92.3472 103.653 91.2807 103.142 90.3593C102.633 89.4363 101.922 88.7161 101.009 88.1988C100.096 87.6798 99.0333 87.4199 97.8224 87.4199C96.6303 87.4199 95.5785 87.6798 94.6652 88.1988C93.752 88.7161 93.0353 89.4363 92.5159 90.3593C91.9956 91.2807 91.7363 92.3472 91.7363 93.5594Z" fill="white"/>
<path d="M115.239 103.645V83.4702H119.825V103.645H115.239Z" fill="white"/>
<path d="M127.64 103.645V83.4702H136.668C138.724 83.4702 140.358 83.9606 141.57 84.9399C142.783 85.92 143.39 87.2365 143.39 88.8895C143.39 89.8305 143.178 90.6851 142.754 91.4541C142.331 92.2232 141.736 92.8285 140.966 93.2693C141.927 93.6929 142.672 94.3178 143.201 95.143C143.729 95.9691 143.993 96.9207 143.993 97.9977C143.993 99.1301 143.705 100.119 143.129 100.966C142.552 101.812 141.749 102.47 140.719 102.941C139.69 103.411 138.494 103.645 137.131 103.645H127.64ZM132.167 100.015H136.436C137.34 100.015 138.042 99.8047 138.543 99.3827C139.043 98.9591 139.293 98.3627 139.293 97.5936C139.293 96.8246 139.043 96.2298 138.543 95.8078C138.042 95.3842 137.34 95.1724 136.436 95.1724H132.167V100.015ZM132.167 91.6855H135.976C136.861 91.6855 137.539 91.4835 138.008 91.0794C138.48 90.6753 138.716 90.1083 138.716 89.3783C138.716 88.6483 138.48 88.087 138.008 87.6935C137.539 87.3009 136.861 87.1037 135.976 87.1037H132.167V91.6855Z" fill="white"/>
</g>
<mask id="mask1_4110_292" style="mask-type:luminance" maskUnits="userSpaceOnUse" x="0" y="0" width="160" height="73">
<path d="M0 0H160V72.8707H0V0Z" fill="white"/>
</mask>
<g mask="url(#mask1_4110_292)">
<path fill-rule="evenodd" clip-rule="evenodd" d="M117.671 9.26205C121.695 10.5688 124.623 14.3522 124.623 18.7996C124.623 24.3224 120.115 28.8252 114.588 28.8252C109.062 28.8252 104.556 24.3224 104.556 18.7996C104.556 18.3866 104.579 17.9776 104.628 17.5776C104.123 17.9996 103.622 18.4257 103.126 18.8607C103.035 19.4563 102.989 20.0599 102.989 20.6669C102.989 28.2997 109.22 34.5264 116.861 34.5264C124.503 34.5264 130.732 28.2997 130.732 20.6669C130.732 15.083 128.127 9.69058 123.74 7.196C122.772 7.46322 121.788 7.75895 120.789 8.08238C119.737 8.42374 118.696 8.82131 117.671 9.26205ZM55.2961 17.5776C55.3443 17.9776 55.3679 18.3866 55.3679 18.7996C55.3679 24.3224 50.8612 28.8252 45.3361 28.8252C39.8085 28.8252 35.301 24.3224 35.301 18.7996C35.301 14.3522 38.2291 10.5688 42.2531 9.26205C41.229 8.82131 40.1869 8.42374 39.1342 8.08238C38.1354 7.75895 37.1528 7.46322 36.1849 7.196C31.7973 9.69058 29.1913 15.083 29.1913 20.6669C29.1913 28.2997 35.4234 34.5264 43.0628 34.5264C50.7047 34.5264 56.9367 28.2997 56.9367 20.6669C56.9367 20.0599 56.8894 19.4563 56.7973 18.8607C56.3015 18.4257 55.8009 17.9996 55.2961 17.5776ZM79.9618 17.787C62.1879 14.7522 53.1321 1.82965 32.9323 0.354245C19.1562 -0.652711 3.26337 0.667086 0.000976562 19.2884C3.33105 9.14311 13.8945 3.32053 29.643 5.77193C23.4175 12.5681 24.3054 24.2369 27.5311 29.103C32.8214 37.0772 38.8969 39.2931 49.2247 35.9342C55.0613 34.0343 59.1872 26.3404 58.0277 19.9597C60.2252 21.9549 62.3094 24.0438 64.2696 26.1188C61.2518 56.237 9.73516 48.6474 17.2833 21.3814C6.9938 36.8059 33.1125 62.2633 57.8761 47.6062C63.7127 44.1527 68.7567 38.0369 75.544 39.8577C73.4794 42.9046 71.167 45.7503 69.7816 48.2905C74.2948 58.9116 75.3434 61.5504 79.7506 72.8461C84.2753 61.5504 85.0368 58.875 89.7482 48.2905C87.227 44.4957 86.096 42.9633 84.047 39.9538C91.0031 37.8365 96.1172 44.0982 102.044 47.6062C126.81 62.2633 152.929 36.8051 142.64 21.3814C150.186 48.6474 98.6735 56.237 95.6541 26.1212C97.6135 24.043 99.6976 21.9549 101.895 19.9597C100.736 26.3404 104.862 34.0343 110.698 35.9342C121.027 39.2931 127.102 37.0772 132.392 29.103C135.618 24.2369 136.505 12.5681 130.28 5.77193C146.027 3.32053 156.592 9.14311 159.923 19.2884C156.659 0.667086 140.769 -0.652711 126.991 0.354245C106.792 1.82965 97.7383 14.7522 79.9618 17.787Z" fill="white"/>
</g>
</svg>
