<svg width="240" height="173" viewBox="0 0 240 173" fill="none" xmlns="http://www.w3.org/2000/svg">
<mask id="mask0_4073_293" style="mask-type:luminance" maskUnits="userSpaceOnUse" x="21" y="109" width="202" height="64">
<path d="M222.958 109.623H21.627V173H222.958V109.623Z" fill="white"/>
</mask>
<g mask="url(#mask0_4073_293)">
<path d="M33.1447 155.918V132.029H23.5361V125.568H49.6271V132.029H40.0234V155.918H33.1447Z" fill="#44006E"/>
<path d="M77.7426 155.918V143.692H65.8884V155.918H59.0098V125.568H65.8884V137.231H77.7426V125.568H84.6262V155.918H77.7426Z" fill="#44006E"/>
<path d="M93.0957 155.918L105.121 125.568H111.873L123.903 155.918H116.545L114.51 150.673H102.484L100.449 155.918H93.0957ZM104.255 145.251H112.783L108.497 134.152L104.255 145.251Z" fill="#44006E"/>
<path d="M146.735 156.526C143.59 156.526 140.798 155.855 138.359 154.511C135.923 153.166 134.019 151.308 132.65 148.938C131.28 146.569 130.595 143.838 130.595 140.746C130.595 137.651 131.28 134.919 132.65 132.549C134.019 130.18 135.923 128.323 138.359 126.98C140.798 125.634 143.59 124.96 146.735 124.96C149.907 124.96 152.706 125.634 155.13 126.98C157.553 128.323 159.456 130.18 160.839 132.549C162.225 134.919 162.919 137.651 162.919 140.746C162.919 144.07 162.103 146.996 160.472 149.526C158.841 152.053 156.656 153.908 153.917 155.095L154.264 155.918C154.58 156.611 154.905 157.137 155.238 157.497C155.57 157.86 156.017 158.112 156.578 158.257C157.142 158.404 157.886 158.477 158.809 158.477H161.187V163.811H157.336C152.953 163.811 149.966 161.931 148.378 158.173L147.689 156.482L146.735 156.526ZM137.605 140.746C137.605 142.567 137.994 144.171 138.775 145.56C139.554 146.946 140.629 148.029 141.999 148.81C143.369 149.588 144.946 149.977 146.735 149.977C148.551 149.977 150.145 149.588 151.514 148.81C152.884 148.029 153.951 146.946 154.714 145.56C155.48 144.171 155.864 142.567 155.864 140.746C155.864 138.922 155.48 137.318 154.714 135.932C153.951 134.543 152.884 133.46 151.514 132.682C150.145 131.901 148.551 131.51 146.735 131.51C144.946 131.51 143.369 131.901 141.999 132.682C140.629 133.46 139.554 134.543 138.775 135.932C137.994 137.318 137.605 138.922 137.605 140.746Z" fill="#44006E"/>
<path d="M172.859 155.918V125.568H179.738V155.918H172.859Z" fill="#44006E"/>
<path d="M191.46 155.918V125.568H205.002C208.087 125.568 210.538 126.306 212.355 127.779C214.175 129.253 215.085 131.234 215.085 133.721C215.085 135.136 214.767 136.422 214.131 137.579C213.498 138.736 212.605 139.646 211.45 140.309C212.891 140.947 214.009 141.887 214.801 143.128C215.594 144.371 215.99 145.802 215.99 147.423C215.99 149.126 215.557 150.614 214.694 151.889C213.829 153.161 212.624 154.151 211.078 154.859C209.535 155.565 207.742 155.918 205.697 155.918H191.46ZM198.251 150.457H204.655C206.011 150.457 207.064 150.141 207.815 149.506C208.565 148.869 208.94 147.972 208.94 146.815C208.94 145.658 208.565 144.763 207.815 144.128C207.064 143.491 206.011 143.172 204.655 143.172H198.251V150.457ZM198.251 137.927H203.965C205.292 137.927 206.308 137.623 207.013 137.015C207.72 136.407 208.074 135.554 208.074 134.456C208.074 133.358 207.72 132.514 207.013 131.922C206.308 131.331 205.292 131.034 203.965 131.034H198.251V137.927Z" fill="#44006E"/>
</g>
<mask id="mask1_4073_293" style="mask-type:luminance" maskUnits="userSpaceOnUse" x="0" y="0" width="240" height="110">
<path d="M0 0H240V109.623H0V0Z" fill="white"/>
</mask>
<g mask="url(#mask1_4073_293)">
<path fill-rule="evenodd" clip-rule="evenodd" d="M176.506 13.9333C182.542 15.8992 186.934 21.5907 186.934 28.2811C186.934 36.5893 180.173 43.3631 171.882 43.3631C163.594 43.3631 156.834 36.5893 156.834 28.2811C156.834 27.6598 156.87 27.0445 156.942 26.4428C156.185 27.0776 155.434 27.7186 154.69 28.3731C154.553 29.269 154.485 30.1771 154.485 31.0902C154.485 42.5726 163.83 51.9397 175.292 51.9397C186.755 51.9397 196.099 42.5726 196.099 31.0902C196.099 22.6901 192.191 14.578 185.61 10.8253C184.158 11.2273 182.683 11.6721 181.185 12.1587C179.606 12.6722 178.045 13.2703 176.506 13.9333ZM82.9447 26.4428C83.0169 27.0445 83.0523 27.6598 83.0523 28.2811C83.0523 36.5893 76.2923 43.3631 68.0046 43.3631C59.7133 43.3631 52.952 36.5893 52.952 28.2811C52.952 21.5907 57.3442 15.8992 63.3801 13.9333C61.8439 13.2703 60.2808 12.6722 58.7018 12.1587C57.2035 11.6721 55.7297 11.2273 54.2779 10.8253C47.6964 14.578 43.7874 22.6901 43.7874 31.0902C43.7874 42.5726 53.1355 51.9397 64.5947 51.9397C76.0575 51.9397 85.4056 42.5726 85.4056 31.0902C85.4056 30.1771 85.3346 29.269 85.1964 28.3731C84.4528 27.7186 83.7018 27.0776 82.9447 26.4428ZM119.943 26.7578C93.2823 22.1925 79.6986 2.75241 49.399 0.532893C28.7348 -0.981918 4.89554 1.00351 0.00195312 29.0165C4.99706 13.7544 20.8422 4.99521 44.465 8.68297C35.1267 18.9067 36.4587 36.4606 41.2972 43.781C49.2326 55.7769 58.3459 59.1105 73.8376 54.0574C82.5925 51.1994 88.7813 39.6251 87.0421 30.0264C90.3383 33.0278 93.4645 36.1702 96.4048 39.2917C91.8782 84.6 14.6032 73.1826 25.9254 32.165C10.4912 55.3688 49.6693 93.6656 86.8146 71.6163C95.5695 66.4211 103.136 57.2207 113.317 59.9598C110.22 64.5435 106.751 68.8244 104.673 72.6458C111.443 88.6236 113.016 92.5932 119.626 109.586C126.413 92.5932 127.556 88.5684 134.623 72.6458C130.841 66.937 129.145 64.6317 126.071 60.1044C136.505 56.9192 144.176 66.3389 153.067 71.6163C190.216 93.6656 229.394 55.3676 213.96 32.165C225.28 73.1826 148.011 84.6 143.482 39.2954C146.421 36.169 149.547 33.0278 152.843 30.0264C151.104 39.6251 157.293 51.1994 166.048 54.0574C181.541 59.1105 190.654 55.7769 198.588 43.781C203.428 36.4606 204.759 18.9067 195.42 8.68297C219.041 4.99521 234.888 13.7544 239.885 29.0165C234.99 1.00351 211.154 -0.981918 190.486 0.532893C160.188 2.75241 146.608 22.1925 119.943 26.7578Z" fill="#44006E"/>
</g>
</svg>
